<?xml version="1.0" standalone="no"?>
<!DOCTYPE svg PUBLIC "-//W3C//DTD SVG 20010904//EN"
 "http://www.w3.org/TR/2001/REC-SVG-20010904/DTD/svg10.dtd">
<svg version="1.0" xmlns="http://www.w3.org/2000/svg"
 width="737.000000pt" height="737.000000pt" viewBox="0 0 737.000000 737.000000"
 preserveAspectRatio="xMidYMid meet">

<g transform="translate(0.000000,737.000000) scale(0.100000,-0.100000)"
fill="#000000" stroke="none">
<path d="M2435 7004 c-262 -27 -470 -84 -690 -189 -576 -273 -988 -797 -1121
-1425 -28 -129 -29 -146 -29 -405 0 -246 2 -280 24 -385 96 -463 317 -841 681
-1165 172 -153 274 -222 465 -315 447 -218 936 -266 1420 -140 162 42 394 143
530 229 27 17 53 31 57 31 5 0 50 -24 101 -53 236 -136 458 -211 738 -253 161
-23 488 -16 644 15 291 58 529 155 759 311 285 192 532 471 684 775 144 286
212 579 212 909 0 469 -154 903 -453 1276 -68 84 -246 264 -322 325 -27 22
-52 42 -55 45 -18 19 -153 107 -250 164 -201 116 -468 207 -709 240 -144 21
-412 21 -564 1 -262 -35 -543 -134 -770 -274 l-69 -42 -62 39 c-196 124 -464
223 -726 267 -91 16 -410 28 -495 19z m550 -498 c101 -21 212 -58 358 -119
l27 -11 0 -333 c0 -260 3 -333 13 -333 6 0 95 84 196 185 101 102 189 185 196
185 12 0 57 -49 148 -161 49 -59 137 -197 137 -214 0 -5 -148 -159 -330 -340
-181 -181 -330 -334 -330 -340 0 -6 162 -172 360 -370 198 -198 360 -365 360
-370 0 -39 -197 -355 -247 -397 -12 -9 -59 33 -251 225 -131 130 -240 237
-245 237 -4 0 -7 -175 -7 -390 l0 -390 -47 -24 c-440 -221 -988 -219 -1436 5
-174 88 -412 273 -481 375 -12 17 -50 73 -85 124 -140 204 -233 462 -261 722
-14 134 -13 224 5 361 97 737 653 1294 1395 1397 121 17 391 4 525 -24z m2128
23 c294 -44 567 -165 793 -351 245 -202 429 -519 506 -872 19 -88 22 -130 22
-321 0 -242 -12 -321 -74 -508 -27 -80 -123 -293 -139 -307 -3 -3 -31 -43 -62
-90 -51 -76 -101 -138 -179 -219 -54 -58 -179 -157 -272 -218 -438 -287 -1000
-337 -1491 -133 -42 17 -77 35 -77 38 0 4 14 23 31 42 102 115 268 362 309
459 8 20 23 50 32 66 9 17 205 218 436 448 l419 419 -471 472 c-346 347 -482
490 -510 537 -55 90 -138 202 -208 281 -33 37 -56 73 -53 79 8 12 121 65 207
97 82 31 211 63 303 77 102 16 385 18 478 4z"/>
<path d="M2743 5746 l-143 -142 0 -622 0 -623 143 -141 142 -142 3 458 c1 251
1 659 0 906 l-3 449 -142 -143z"/>
<path d="M2128 5129 c-76 -77 -138 -143 -138 -148 0 -6 248 -258 285 -290 3
-2 5 127 5 287 0 161 -3 292 -7 291 -5 0 -70 -63 -145 -140z"/>
<path d="M637 2694 c-4 -4 -7 -229 -7 -501 l0 -493 95 0 95 0 2 193 3 192 90
0 89 0 146 -193 145 -193 100 3 100 3 1 34 c1 28 -22 64 -150 235 -84 110
-155 207 -160 214 -5 8 12 39 45 85 30 39 56 74 60 77 21 16 209 286 209 301
0 44 -9 49 -94 49 -44 0 -90 -3 -101 -6 -11 -3 -83 -91 -160 -195 l-140 -189
-90 3 -90 2 -5 190 -5 190 -85 3 c-47 1 -89 0 -93 -4z"/>
<path d="M1750 2689 c-45 -13 -88 -53 -111 -104 -17 -36 -19 -71 -19 -386 l0
-347 28 -53 c20 -39 38 -58 71 -76 43 -23 49 -23 348 -23 284 0 306 1 343 20
47 24 84 71 99 125 14 52 15 656 1 706 -14 52 -49 100 -90 123 -33 20 -52 21
-335 23 -181 1 -314 -2 -335 -8z m570 -489 l0 -280 -255 0 -255 0 0 273 c0
151 3 277 7 280 3 4 118 7 255 7 l248 0 0 -280z"/>
<path d="M2657 2694 c-4 -4 -7 -229 -7 -501 l0 -493 95 0 c84 0 95 2 95 18 1
9 1 153 0 319 0 166 4 304 9 307 8 6 66 -65 216 -266 44 -59 85 -107 91 -108
6 0 22 15 35 34 79 112 261 346 269 346 6 0 10 -124 10 -325 l0 -325 95 0 95
0 -2 498 -3 497 -80 3 c-44 2 -90 1 -101 -2 -13 -4 -78 -81 -164 -196 -78
-104 -147 -190 -154 -190 -6 0 -19 10 -28 23 -10 12 -75 99 -146 192 l-128
170 -95 3 c-52 1 -98 0 -102 -4z"/>
<path d="M3817 2693 c-4 -3 -7 -228 -7 -500 l0 -494 97 3 c96 3 97 3 96 28 0
14 -1 238 -2 498 l-1 472 -88 0 c-49 0 -92 -3 -95 -7z"/>
<path d="M4095 2691 c-3 -6 -5 -229 -5 -498 l0 -488 95 -3 95 -3 0 326 c0 179
3 325 8 325 4 0 16 -12 27 -27 11 -15 36 -48 55 -73 19 -26 121 -160 225 -298
l190 -253 100 3 100 3 0 495 0 495 -95 0 -95 0 -3 -322 c-1 -178 -6 -323 -10
-323 -4 0 -62 74 -129 163 -239 319 -356 472 -367 479 -16 11 -184 10 -191 -1z"/>
<path d="M5137 2693 c-4 -3 -7 -228 -7 -500 l0 -493 100 0 100 0 0 195 0 195
255 0 255 0 0 110 0 110 -255 0 -255 0 0 85 0 85 318 2 317 3 3 85 c2 47 0 95
-3 108 l-5 22 -409 0 c-224 0 -411 -3 -414 -7z"/>
<path d="M6174 2691 c-44 -11 -88 -47 -115 -94 l-24 -42 0 -355 c0 -349 0
-356 22 -397 13 -23 39 -54 60 -70 l36 -28 321 -3 321 -3 40 27 c99 63 108
110 103 519 l-3 310 -30 47 c-16 26 -47 57 -70 70 -39 22 -47 23 -335 25 -162
1 -309 -2 -326 -6z m564 -493 l2 -278 -255 0 -255 0 0 280 0 280 253 -2 252
-3 3 -277z"/>
<path d="M1291 1558 c-30 -4 -74 -20 -98 -33 -174 -102 -174 -390 0 -474 64
-31 193 -30 263 3 102 47 161 157 152 281 -14 164 -139 253 -317 223z m132
-62 c46 -19 95 -78 102 -123 3 -21 8 -46 10 -56 5 -26 -20 -123 -40 -154 -35
-53 -92 -81 -168 -82 -122 -2 -196 87 -185 223 9 101 58 173 136 196 42 13
110 11 145 -4z"/>
<path d="M5230 1561 c-85 -18 -130 -65 -130 -137 0 -57 37 -96 138 -149 112
-57 134 -77 130 -117 -6 -63 -101 -94 -208 -68 -54 13 -69 7 -70 -27 0 -29
204 -46 267 -22 65 24 100 89 82 153 -14 50 -38 72 -146 130 -107 57 -131 84
-114 130 16 41 63 58 150 54 72 -3 76 -2 79 19 2 16 -3 22 -25 26 -60 12 -120
15 -153 8z"/>
<path d="M5665 1560 c-28 -4 -60 -13 -71 -20 -34 -21 -64 -74 -64 -112 0 -58
35 -97 133 -148 48 -26 98 -56 112 -68 33 -28 33 -71 1 -101 -31 -29 -126 -39
-192 -21 -47 14 -63 7 -64 -27 0 -32 207 -46 273 -18 69 29 101 100 73 165
-17 41 -47 65 -137 110 -102 52 -119 66 -119 105 0 38 28 72 68 82 13 3 54 2
93 -1 69 -7 69 -7 69 18 0 21 -6 26 -37 31 -72 11 -88 12 -138 5z"/>
<path d="M640 1295 l0 -266 33 3 32 3 3 110 c2 83 7 113 19 127 8 10 20 15 24
12 5 -3 54 -61 110 -130 97 -121 101 -124 139 -124 22 0 40 3 40 8 0 7 -67 93
-144 185 -20 25 -50 62 -65 83 l-28 39 102 95 c57 52 103 101 104 108 1 7 -12
12 -33 12 -30 0 -48 -13 -141 -102 -59 -57 -111 -104 -116 -106 -4 -2 -10 43
-11 100 l-3 103 -32 3 -33 3 0 -266z"/>
<path d="M1654 1545 c-14 -36 3 -45 86 -45 l80 0 2 -232 3 -233 32 -3 33 -3 2
233 3 233 80 5 c77 5 80 6 80 30 l0 25 -198 3 c-169 2 -198 0 -203 -13z"/>
<path d="M2230 1538 c-60 -136 -197 -495 -191 -501 5 -5 21 -7 36 -5 25 3 31
12 59 86 l31 82 114 -2 114 -3 26 -70 c14 -39 30 -76 34 -83 9 -13 63 -17 71
-4 3 5 -41 123 -97 263 l-102 254 -43 3 c-36 3 -43 0 -52 -20z m94 -167 c20
-51 36 -97 36 -102 0 -5 -36 -9 -80 -9 -47 0 -80 4 -80 10 0 23 75 209 81 203
4 -5 23 -50 43 -102z"/>
<path d="M2866 1551 c-6 -9 -25 -370 -26 -469 l0 -53 33 3 32 3 6 75 c4 41 7
129 8 195 1 66 5 126 10 134 6 9 33 -50 87 -185 42 -110 82 -205 87 -212 6 -8
26 -12 50 -10 l39 3 81 205 c45 113 82 207 84 209 10 14 14 -26 20 -210 l8
-204 38 0 c20 0 38 3 38 8 4 17 -12 435 -17 475 l-6 42 -50 0 -49 0 -23 -52
c-13 -29 -54 -130 -91 -225 -38 -95 -72 -170 -76 -168 -4 3 -42 94 -84 203
-43 108 -84 207 -91 220 -12 17 -24 22 -59 22 -24 0 -46 -4 -49 -9z"/>
<path d="M3715 1508 c-30 -64 -185 -456 -185 -469 0 -5 15 -9 34 -9 34 0 35 1
67 85 l32 85 111 0 112 0 33 -85 c32 -82 34 -85 65 -85 18 0 35 2 38 5 6 6
-187 492 -203 512 -6 7 -27 13 -45 13 -31 0 -36 -4 -59 -52z m105 -135 c21
-54 35 -101 33 -105 -4 -8 -163 -12 -163 -4 0 5 48 135 59 161 5 11 12 29 15
39 9 27 15 18 56 -91z"/>
<path d="M4115 1548 c-3 -7 -4 -126 -3 -263 l3 -250 33 -3 32 -3 0 109 c0 91
3 114 18 132 22 27 14 34 141 -123 91 -113 96 -117 133 -117 21 0 38 4 38 9 0
4 -52 73 -115 152 -63 79 -115 146 -115 150 0 3 48 53 108 110 94 91 104 104
83 107 -43 7 -66 -8 -170 -108 -58 -55 -108 -97 -112 -93 -5 5 -9 51 -11 103
l-3 95 -28 3 c-16 2 -29 -2 -32 -10z"/>
<path d="M4747 1553 c-9 -15 -196 -488 -199 -503 -2 -11 6 -15 31 -15 34 0 35
2 66 80 l31 80 112 0 113 0 32 -80 c31 -79 33 -80 70 -83 20 -2 37 1 37 5 0
10 -186 477 -201 505 -7 13 -21 18 -49 18 -21 0 -41 -3 -43 -7z m123 -284 c0
-5 -36 -9 -80 -9 -60 0 -80 3 -80 13 0 12 24 75 67 177 l15 35 39 -104 c21
-57 39 -108 39 -112z"/>
<path d="M6065 1393 c-37 -93 -84 -210 -105 -261 -40 -98 -39 -107 12 -100 19
2 29 18 55 83 l32 80 112 0 113 0 32 -80 c31 -78 33 -80 68 -83 23 -2 36 1 36
9 0 16 -190 490 -203 507 -5 6 -26 12 -47 12 l-37 0 -68 -167z m153 -20 c22
-56 37 -105 34 -108 -8 -8 -162 -6 -162 3 0 6 17 52 71 191 5 13 11 22 13 20
2 -2 22 -50 44 -106z"/>
<path d="M6498 1539 c-2 -13 -4 -91 -3 -174 2 -82 3 -192 4 -243 l1 -93 33 3
32 3 5 105 c5 101 6 105 29 108 49 7 67 -7 140 -113 67 -97 75 -105 105 -105
18 0 36 3 39 6 6 7 -86 146 -127 193 l-21 23 25 16 c76 50 104 118 76 186 -31
75 -80 97 -227 104 -105 4 -106 4 -111 -19z m211 -50 c18 -6 38 -24 46 -40 44
-84 -18 -149 -142 -149 l-43 0 0 100 0 100 54 0 c29 0 67 -5 85 -11z"/>
<path d="M647 874 c-4 -4 -7 -108 -7 -231 0 -215 1 -223 20 -223 17 0 19 8 22
65 2 36 7 66 12 68 5 1 30 -28 55 -65 34 -51 51 -68 68 -68 30 0 29 6 -12 65
-19 28 -42 65 -52 83 l-17 32 47 48 c26 26 47 51 47 55 0 4 -10 7 -23 7 -14 0
-40 -18 -67 -45 -24 -25 -48 -45 -52 -45 -4 0 -9 57 -10 127 -3 117 -10 148
-31 127z"/>
<path d="M3283 873 c-9 -3 -13 -31 -13 -89 l0 -84 -44 6 c-56 8 -98 -15 -122
-67 -34 -76 -11 -194 42 -218 34 -15 47 -14 90 7 28 13 38 14 41 5 3 -7 11
-13 19 -13 12 0 14 37 14 224 0 124 -3 227 -7 229 -5 2 -14 2 -20 0z m-25
-212 c9 -5 12 -31 10 -91 -3 -76 -5 -85 -29 -102 -72 -54 -142 59 -93 153 21
41 78 62 112 40z"/>
<path d="M3666 873 c-3 -4 -6 -107 -6 -230 0 -216 1 -223 20 -223 19 0 20 7
20 224 0 183 -3 225 -14 229 -8 3 -17 3 -20 0z"/>
<path d="M4663 873 c-10 -4 -13 -59 -13 -229 0 -212 1 -224 19 -224 15 0 19
10 24 61 3 34 9 65 14 70 5 5 28 -20 54 -60 36 -58 49 -70 72 -70 15 -1 27 1
27 3 0 3 -25 41 -55 85 -30 44 -55 84 -55 89 0 4 20 28 45 52 50 49 55 60 24
60 -11 0 -38 -20 -61 -45 -64 -70 -68 -65 -68 79 0 69 -3 127 -7 129 -5 2 -14
2 -20 0z"/>
<path d="M5981 861 c-16 -16 -21 -34 -21 -70 0 -59 -7 -81 -26 -81 -8 0 -14
-9 -14 -20 0 -11 7 -20 15 -20 22 0 28 -40 22 -150 -4 -100 -4 -100 19 -100
24 0 24 0 24 125 l0 126 58 -3 57 -3 3 -122 c2 -115 4 -123 22 -123 19 0 20 7
20 145 l0 145 -80 0 -80 0 0 59 c0 63 7 71 57 71 18 0 24 5 21 18 -5 27 -71
29 -97 3z"/>
<path d="M1621 827 c-16 -16 -13 -47 5 -54 20 -7 45 22 38 42 -8 19 -30 25
-43 12z"/>
<path d="M5801 822 c-11 -21 3 -52 24 -52 19 0 29 38 15 55 -16 20 -27 19 -39
-3z"/>
<path d="M6119 824 c-15 -18 -2 -47 24 -52 20 -4 32 35 17 53 -16 19 -24 19
-41 -1z"/>
<path d="M5648 783 c-10 -11 -18 -32 -18 -46 0 -17 -5 -27 -14 -27 -26 0 -30
-22 -8 -39 19 -14 22 -28 24 -120 3 -99 4 -105 29 -124 20 -14 35 -17 58 -12
41 9 39 40 -2 40 -16 1 -33 7 -38 15 -5 8 -8 56 -7 105 l3 90 33 3 c45 4 41
36 -5 40 -30 3 -32 6 -35 49 -3 44 -4 45 -20 26z"/>
<path d="M1782 778 c-7 -7 -12 -22 -12 -34 0 -12 -10 -29 -22 -38 l-23 -16 23
-16 c20 -15 22 -24 22 -118 1 -106 8 -128 47 -140 32 -10 75 3 71 23 -2 9 -12
15 -23 14 -11 -1 -27 3 -37 8 -17 9 -18 22 -16 107 l3 97 33 3 c24 2 32 8 32
23 0 15 -7 19 -35 19 -34 0 -35 1 -35 40 0 41 -7 49 -28 28z"/>
<path d="M6267 783 c-4 -3 -7 -17 -7 -30 0 -13 -9 -31 -20 -40 -24 -21 -26
-43 -5 -43 12 0 15 -16 15 -82 0 -144 30 -196 98 -172 34 12 36 39 2 40 -14 1
-31 2 -37 3 -10 1 -13 29 -13 105 l0 105 33 3 c20 2 32 8 32 18 0 10 -12 16
-32 18 -31 3 -33 6 -33 43 0 37 -15 51 -33 32z"/>
<path d="M953 708 c-69 -18 -103 -132 -68 -223 35 -92 155 -101 200 -15 38 74
5 223 -53 236 -15 3 -31 7 -37 8 -5 2 -24 -1 -42 -6z m82 -58 c29 -32 32 -126
6 -167 -25 -41 -69 -45 -101 -10 -19 19 -21 31 -18 95 3 59 7 77 23 88 27 20
69 17 90 -6z"/>
<path d="M2767 709 c-16 -4 -35 -13 -43 -20 -12 -10 -17 -8 -29 7 -27 38 -36
4 -33 -137 3 -130 4 -134 26 -137 22 -3 22 -2 22 107 l0 110 30 16 c16 8 37
15 48 15 36 0 42 -20 42 -137 l0 -113 25 0 25 0 0 119 c0 103 -3 122 -20 143
-22 29 -53 38 -93 27z"/>
<path d="M4159 710 c-14 -4 -35 -12 -46 -18 -16 -9 -24 -8 -33 3 -24 29 -30 2
-30 -136 0 -132 1 -139 20 -139 19 0 20 7 20 104 0 81 4 108 15 120 18 17 78
31 94 21 7 -4 11 -52 11 -126 l0 -119 25 0 25 0 0 110 0 109 30 16 c16 8 37
15 48 15 36 0 42 -20 42 -137 0 -106 1 -113 20 -113 19 0 20 7 20 115 0 66 -5
125 -12 140 -19 41 -76 49 -131 17 -21 -13 -30 -14 -35 -5 -12 19 -55 31 -83
23z"/>
<path d="M5155 711 c-60 -17 -89 -70 -88 -158 1 -109 64 -162 158 -131 23 7
40 19 40 28 0 16 -18 17 -70 5 -42 -9 -76 19 -78 65 l-2 35 80 5 c79 5 80 5
83 34 4 31 -13 79 -33 96 -20 16 -67 27 -90 21z m65 -57 c7 -7 10 -23 8 -36
-3 -21 -8 -23 -58 -23 -52 0 -55 1 -52 23 5 53 70 76 102 36z"/>
<path d="M1235 693 c-20 -11 -30 -12 -33 -4 -2 6 -10 11 -18 11 -11 0 -14 -26
-14 -140 0 -133 1 -140 20 -140 19 0 20 7 20 110 l0 109 30 16 c16 8 37 15 48
15 36 0 42 -20 42 -137 0 -106 1 -113 20 -113 19 0 20 7 20 104 0 113 7 130
57 142 51 13 58 -2 61 -130 2 -108 4 -116 22 -116 19 0 20 7 20 123 0 144 -9
167 -67 167 -19 0 -48 -8 -64 -17 -26 -16 -29 -16 -47 0 -23 21 -78 21 -117 0z"/>
<path d="M1620 691 c-1 -12 -1 -70 -1 -131 0 -60 0 -117 1 -125 0 -8 9 -15 20
-15 20 0 20 5 18 142 -3 127 -5 143 -20 146 -13 2 -18 -3 -18 -17z"/>
<path d="M1957 703 c-4 -3 -7 -69 -7 -145 0 -131 1 -138 20 -138 19 0 20 7 20
104 0 113 7 130 57 142 51 13 58 -2 61 -130 2 -108 4 -116 22 -116 19 0 20 7
20 99 0 111 11 137 65 146 50 9 54 0 56 -128 1 -116 1 -117 25 -117 24 0 24 1
24 109 0 108 -10 158 -33 173 -20 13 -76 9 -108 -8 -28 -14 -32 -14 -48 0 -21
20 -77 20 -111 1 -21 -11 -27 -11 -41 1 -9 8 -19 11 -22 7z"/>
<path d="M2432 694 c-70 -49 -68 -222 2 -265 35 -22 56 -23 109 -8 26 7 37 15
37 29 0 23 -3 24 -50 10 -51 -15 -87 3 -99 48 -6 19 -8 39 -5 44 3 4 41 8 84
8 67 0 79 3 82 18 7 30 -9 83 -33 108 -27 29 -92 33 -127 8z m108 -48 c21 -41
7 -56 -50 -56 -58 0 -72 16 -46 55 23 35 77 35 96 1z"/>
<path d="M3433 700 c-14 -6 -23 -18 -23 -31 0 -18 4 -20 23 -14 74 23 107 12
107 -38 0 -22 -5 -25 -51 -31 -96 -13 -141 -95 -84 -151 29 -30 49 -31 100 -5
47 24 45 24 45 5 0 -21 30 -19 31 3 13 228 -1 273 -84 271 -23 0 -52 -4 -64
-9z m107 -179 c0 -49 -67 -90 -98 -59 -33 33 7 88 63 88 32 0 35 -2 35 -29z"/>
<path d="M3813 698 c-28 -13 -33 -54 -5 -43 68 27 112 13 112 -35 0 -26 -4
-29 -52 -35 -38 -5 -60 -15 -80 -35 -73 -74 8 -174 98 -121 42 25 44 25 44 6
0 -8 7 -15 15 -15 16 0 18 11 17 125 0 118 -1 124 -22 145 -22 22 -89 26 -127
8z m107 -181 c0 -28 -6 -37 -33 -52 -27 -14 -38 -15 -55 -6 -48 25 -9 91 53
91 33 0 35 -2 35 -33z"/>
<path d="M4917 704 c-4 -4 -7 -70 -7 -146 l0 -138 25 0 c25 0 25 0 25 99 0 96
1 100 26 120 15 12 33 21 40 21 8 0 14 11 14 25 0 30 -5 31 -49 4 l-35 -21
-16 22 c-9 11 -19 18 -23 14z"/>
<path d="M5384 700 c-28 -11 -35 -22 -25 -39 7 -10 13 -10 29 -2 37 20 81 14
94 -13 17 -38 4 -54 -49 -62 -59 -9 -103 -48 -103 -92 0 -46 9 -60 46 -72 30
-10 40 -9 75 9 34 18 40 19 45 6 4 -8 13 -15 21 -15 12 0 14 21 11 130 -3 115
-5 131 -23 144 -22 17 -87 20 -121 6z m104 -178 c6 -40 -48 -80 -89 -67 -28 9
-25 60 4 80 33 23 81 16 85 -13z"/>
<path d="M5807 703 c-4 -3 -7 -69 -7 -145 0 -131 1 -138 20 -138 19 0 20 7 20
145 0 114 -3 145 -13 145 -8 0 -17 -3 -20 -7z"/>
<path d="M6463 698 c-28 -13 -33 -54 -5 -42 9 4 34 9 56 12 43 5 56 -6 56 -48
0 -24 -6 -27 -60 -38 -70 -15 -94 -41 -92 -100 2 -67 57 -90 121 -51 31 19 34
19 46 3 24 -34 35 -5 35 95 0 106 -12 156 -40 171 -24 13 -89 12 -117 -2z
m107 -183 c0 -29 -5 -37 -31 -51 -25 -12 -37 -14 -55 -5 -51 23 -12 91 51 91
33 0 35 -2 35 -35z"/>
<path d="M6705 686 c-10 -15 -15 -40 -13 -63 3 -34 9 -42 61 -77 60 -42 71
-68 37 -86 -14 -8 -31 -8 -57 -1 -25 7 -41 7 -47 1 -17 -17 15 -39 64 -46 114
-15 143 109 39 167 -81 46 -81 89 1 89 36 0 50 4 50 14 0 18 -22 26 -76 26
-35 0 -47 -5 -59 -24z"/>
</g>
</svg>
